<svg width="100%" height="100%" viewBox="0 0 100 100"
  xmlns="http://www.w3.org/2000/svg"
  xmlns:html="http://www.w3.org/1999/xhtml">
    <html:link rel="help" href="https://www.w3.org/TR/2016/CR-SVG2-20160915/painting.html#OrientAttribute"/>
    <html:link rel="match" href="marker-orient-autostartreverse-001-ref.svg"/>
    <html:meta name="assert" content="Test auto-start-reverse causes different orientation of markers at each end of a path."/>
    <defs>
        <marker id="arrow" orient="auto-start-reverse" markerWidth="10" markerHeight="10" style="overflow:visible">
            <path d="M5,0 L 0,-5 L0,5 z" fill="green"/>
        </marker>
     </defs>
    <text font-size="3">
    <tspan x="0" y="3">Markers at each end of each path should point outwards.</tspan>
    <tspan x="0" y="6">Middle marker should point along the direction of each path.</tspan>
    <tspan x="0" y="9">No red should be visible.</tspan>
    </text>
    <!-- Red objects must not be visible -->
    <path d="M 19.5,19.5 l-2.5,2.5 l0,-5 l5,0 z" fill="red" />
    <path d="M 80.5,80.5 l-2.5,2.5 l5,0 l0,-5 z" fill="red" />

    <path d="M 80.5,19.5 l2.5,2.5 l0,-5 l-5,0 z" fill="red" />
    <path d="M 19.5,80.5 l2.5,2.5 l-5,0 l0,-5 z" fill="red" />

    <path d="M 40,19.5 l4,0 -4,-4 -4,4 z" fill="red" />
    <path d="M 40,80.5 l4,0 -4,4 -4,-4 z" fill="red" />

    <path d="M 65.5,19.5 l3,1.5 -1.5,-5 -4.5,2 z" fill="red" />
    <path d="M 80.5,59.5 l-2.5,-2.5 5,0 0,5 z" fill="red" />
    
    <path d="M 20.5,60.5 l-2.5,2.5 5,0 0,-5 z" fill="red" />
    <path d="M 50,35.5 l-2.5,2.5 5,0 0.5,-5 z" fill="red" />
    <!-- Test path, with markers -->
    <path d="M 20,20 l30,30 30,30" marker-start="url(#arrow)" marker-mid="url(#arrow)" marker-end="url(#arrow)" stroke="black"/>
    <path d="M 80,20 l-30,30 -30,30" marker-start="url(#arrow)" marker-mid="url(#arrow)" marker-end="url(#arrow)" stroke="black"/>
    <path d="M 40,20 l0,30 0,30" marker-start="url(#arrow)" marker-mid="url(#arrow)" marker-end="url(#arrow)" stroke="black"/>
    <path d="M 65,20 C60,30 60,80 80,60" marker-start="url(#arrow)" marker-mid="url(#arrow)" marker-end="url(#arrow)" stroke="black" fill="none"/>
    <path d="M 20,60 a15,15 -10 0,1 30,-25" marker-start="url(#arrow)" marker-mid="url(#arrow)" marker-end="url(#arrow)" stroke="black" fill="none"/>
</svg>
